<svg id="picto_MEDIATHEQUE" data-name="picto MEDIATHEQUE" xmlns="http://www.w3.org/2000/svg" width="130" height="130" viewBox="0 0 130 130">
  <rect id="Rectangle_1471" data-name="Rectangle 1471" width="130" height="130" fill="#fff"/>
  <g id="Groupe_520">
    <g id="Groupe_497">
      <g id="Groupe_496">
        <g id="Groupe_495">
          <path id="Tracé_4280" d="M73.51,118.32H56.16l-.95-3.3a20.071,20.071,0,0,0-9.42-11.79,20.088,20.088,0,0,0-15.03-2.33l-3.33.82L18.75,86.69l2.38-2.47a19.915,19.915,0,0,0,5.5-13.99,20.14,20.14,0,0,0-5.5-14.25l-2.38-2.47,8.68-15.03,3.34.83a1,1,0,0,1,.74,1.21v.01a.986.986,0,0,1-1.18.74h-.04l-1.86-.46-7.17,12.4,1.33,1.38a22.877,22.877,0,0,1,.01,31.03L21.27,87l7.16,12.4,1.86-.46a21.886,21.886,0,0,1,16.36,2.44,22.2,22.2,0,0,1,10.52,13.07l.53,1.84H72.02l.53-1.84A22.886,22.886,0,0,1,99.43,98.94l1.86.46L108.45,87l-1.33-1.38a22.877,22.877,0,0,1-.01-31.03l1.33-1.38-7.16-12.4-1.86.46a.993.993,0,0,1-1.21-.7v-.03a1,1,0,0,1,.72-1.22h.01l3.33-.83,8.67,15.03-2.38,2.47a19.994,19.994,0,0,0-5.5,13.99,20.2,20.2,0,0,0,5.5,14.25l2.38,2.47-8.67,15.03-3.34-.83a20.866,20.866,0,0,0-24.45,14.12l-.95,3.3Z" fill="#e94b57"/>
          <path id="Tracé_4281" d="M64.83,98.12A28.1,28.1,0,0,1,36.77,70.06a1.01,1.01,0,1,1,2.02,0,26.045,26.045,0,0,0,52.09,0,1.01,1.01,0,0,1,2.02,0A28.1,28.1,0,0,1,64.84,98.12" fill="#62c4dd"/>
          <path id="Tracé_4282" d="M66.83,44.83a2.925,2.925,0,0,1-1.44-.38,3.5,3.5,0,0,1-1.66-3.1c0-2.07.93-3.48,3.11-4.74L86.18,25.44,65.35,13.19a1.01,1.01,0,1,1,1.01-1.75L87.19,23.47a2.139,2.139,0,0,1,0,3.71L67.85,38.34c-1.55.9-2.1,1.68-2.1,3a1.537,1.537,0,0,0,.66,1.35,1.06,1.06,0,0,0,1.11-.1L86.47,31.65l-.99-.64a1.007,1.007,0,0,1,1.03-1.73.3.3,0,0,1,.07.05l2.36,1.54a1,1,0,0,1,.29,1.4,1.041,1.041,0,0,1-.34.32L68.53,44.35a3.38,3.38,0,0,1-1.7.48" fill="#00294b"/>
          <path id="Tracé_4283" d="M65.71,44.46a1.03,1.03,0,0,1-.51-.14L43.11,31.57a3.708,3.708,0,0,1-1.77-2.24,3.075,3.075,0,0,1-.14-1.04c.01-2.04.94-3.44,3.1-4.68L65.34,11.46a1.01,1.01,0,1,1,1.01,1.75h0L45.31,25.36c-1.55.89-2.1,1.67-2.1,2.99v.07a1.217,1.217,0,0,0,.07.38,1.74,1.74,0,0,0,.83,1.03l22.1,12.75a1.006,1.006,0,0,1-.5,1.88" fill="#00294b"/>
          <path id="Tracé_4284" d="M76.35,52.02a1.009,1.009,0,0,1-.51-1.88l10.62-6.13-.99-.64a1.011,1.011,0,0,1,1.11-1.69l2.37,1.54a1,1,0,0,1,.3,1.39.947.947,0,0,1-.34.32L76.88,51.88a1.112,1.112,0,0,1-.51.14" fill="#00294b"/>
          <path id="Tracé_4285" d="M60.76,53.94a1.03,1.03,0,0,1-.51-.14L43.11,43.91a3.743,3.743,0,0,1-1.78-2.25,3.075,3.075,0,0,1-.14-1.04c.02-2.03.95-3.44,3.1-4.68l.93-.6a1,1,0,1,1,1.1,1.68l-.97.63c-1.59.93-2.14,1.71-2.14,3.02v.07a1.217,1.217,0,0,0,.07.38,1.74,1.74,0,0,0,.83,1.03l17.15,9.9a1.01,1.01,0,0,1,.36,1.38,1.031,1.031,0,0,1-.86.5" fill="#00294b"/>
          <path id="Tracé_4286" d="M72.46,58.66a1.063,1.063,0,0,1-.5-.13,1.017,1.017,0,0,1-.51-.88V55.02l-2.94,1.67a1.012,1.012,0,0,1-1-1.76l4.44-2.53a.993.993,0,0,1,1,0,1,1,0,0,1,.5.87v2.59l1.87-1.12V50.99a1.777,1.777,0,0,0-.89-1.54,1.005,1.005,0,0,1,.99-1.75,3.816,3.816,0,0,1,1.92,3.29v4.32a1.012,1.012,0,0,1-.49.86L72.96,58.5a1.067,1.067,0,0,1-.52.14" fill="#00294b"/>
          <path id="Tracé_4287" d="M64.74,54.7a1.007,1.007,0,0,1-1.01-1.01h0c0-2.07.93-3.48,3.1-4.74L86.18,37.78a1.129,1.129,0,0,1-.37-1.48,1.043,1.043,0,0,1,1.37-.48,2.141,2.141,0,0,1,.8,2.91,2.119,2.119,0,0,1-.8.8L67.84,50.7c-1.55.89-2.1,1.68-2.1,3a1.007,1.007,0,0,1-1.01,1.01h0" fill="#00294b"/>
          <path id="Tracé_4288" d="M62.3,35.19a1.054,1.054,0,0,1-.49-.13l-17.49-9.7a1,1,0,1,1,.95-1.77.144.144,0,0,1,.03.02l17.49,9.7a1.011,1.011,0,0,1-.5,1.89" fill="#00294b"/>
          <path id="Tracé_4289" d="M67.09,83.22H62.3a5.826,5.826,0,0,1-5.82-5.82V64.69a5.826,5.826,0,0,1,5.82-5.82h4.79a5.826,5.826,0,0,1,5.82,5.82V77.4a5.826,5.826,0,0,1-5.82,5.82M62.3,60.89a3.813,3.813,0,0,0-3.81,3.8V77.4a3.815,3.815,0,0,0,3.81,3.81h4.79A3.815,3.815,0,0,0,70.9,77.4V64.69a3.807,3.807,0,0,0-3.81-3.8H62.3Z" fill="#00294b"/>
          <path id="Tracé_4290" d="M64.69,70.93a3.115,3.115,0,1,1,0,.01h0m0-4.22a1.105,1.105,0,1,0,.01,0h0" fill="#00294b"/>
          <path id="Tracé_4291" d="M64.69,66.71a1.007,1.007,0,0,1-1.01-1.01h0V59.86a1.01,1.01,0,0,1,2.02,0V65.7a1.007,1.007,0,0,1-1.01,1.01h0" fill="#00294b"/>
          <path id="Tracé_4292" d="M64.71,65.95a1.007,1.007,0,0,1-1.01-1.01h0V53.69a1.01,1.01,0,0,1,2.02,0h0V64.94a1.007,1.007,0,0,1-1.01,1.01h0" fill="#00294b"/>
          <g id="Groupe_494" opacity="0.2">
            <g id="Groupe_493">
              <g id="Groupe_492">
                <path id="Tracé_4293" d="M73.06,25.23l4.91,2.72,4.53-2.62L65.84,15.71,56.68,21a33.721,33.721,0,0,1,16.37,4.23" fill="#62c4dd"/>
              </g>
            </g>
          </g>
        </g>
      </g>
    </g>
  </g>
</svg>
