<svg id="_1-_Picto_recap_picto_Scolaires" data-name="1- Picto recap_picto Scolaires" xmlns="http://www.w3.org/2000/svg" width="130" height="130" viewBox="0 0 130 130">
  <path id="Tracé_12509" data-name="Tracé 12509" d="M0,0H130V130H0Z" fill="#fff"/>
  <path id="Tracé_12505" data-name="Tracé 12505" d="M73.68,118.44H56.33l-.95-3.3a20.01,20.01,0,0,0-9.43-11.79,20.077,20.077,0,0,0-15.03-2.33l-3.33.82L18.91,86.81l2.38-2.47a19.927,19.927,0,0,0,5.5-13.99,20.183,20.183,0,0,0-5.5-14.25l-2.38-2.47L27.59,38.6l3.34.83a1.009,1.009,0,0,1-.48,1.96l-1.87-.46L21.42,53.34l1.33,1.38a22.89,22.89,0,0,1,.01,31.04l-1.33,1.38,7.16,12.4,1.86-.46a21.913,21.913,0,0,1,16.37,2.45A22.149,22.149,0,0,1,57.33,114.6l.53,1.84H72.18l.53-1.85A22.9,22.9,0,0,1,99.59,99.07l1.87.46,7.16-12.4-1.33-1.38a22.9,22.9,0,0,1,0-31.04l1.33-1.38-7.16-12.41-1.86.46a1.009,1.009,0,0,1-.48-1.96l3.33-.83,8.68,15.03-2.38,2.47a19.927,19.927,0,0,0-5.5,13.99,20.165,20.165,0,0,0,5.5,14.25l2.38,2.47-8.68,15.03L99.11,101a20.868,20.868,0,0,0-24.46,14.11l-.95,3.3Z" fill="#e84b57"/>
  <path id="Tracé_12506" data-name="Tracé 12506" d="M65,98.23A28.1,28.1,0,0,1,36.94,70.17a1.01,1.01,0,1,1,2.02,0,26.05,26.05,0,1,0,52.1,0,1.01,1.01,0,0,1,2.02,0A28.088,28.088,0,0,1,65.02,98.23Z" fill="#5fc3e1"/>
  <g id="Groupe_1677" data-name="Groupe 1677">
    <path id="Tracé_12507" data-name="Tracé 12507" d="M80.21,15.21V12.98a2.973,2.973,0,0,0-2.98-2.97h-5.5a2.97,2.97,0,0,0-2.97,2.97v2.23H61.25V12.98a2.97,2.97,0,0,0-2.97-2.97H52.77a2.97,2.97,0,0,0-2.97,2.97v2.23a7.6,7.6,0,0,0-7.57,7.59V41.97a3.465,3.465,0,0,0,3.02,3.43V76.81c0,.02-.01.04-.01.06a3.124,3.124,0,0,0,3.12,3.12H81.72a3.141,3.141,0,0,0,3.12-3.17V45.39a3.476,3.476,0,0,0,2.94-3.43V22.8a7.6,7.6,0,0,0-7.57-7.59Zm-9.45-2.23a.971.971,0,0,1,.97-.97h5.5a.98.98,0,0,1,.98.97v2.23H70.76V12.98Zm-17.99-.97h5.51a.971.971,0,0,1,.97.97v2.23H51.8V12.98a.971.971,0,0,1,.97-.97Zm12.24,66H51.8v-8.3a2.206,2.206,0,0,1,2.2-2.2H76.02a2.206,2.206,0,0,1,2.2,2.2v8.3Zm16.71,0h-1.5v-8.3a4.2,4.2,0,0,0-4.2-4.2H54a4.2,4.2,0,0,0-4.2,4.2v8.3H48.37a1.118,1.118,0,0,1-1.12-1.12v-.02c0-.02.01-.04.01-.06V45.47h2.55v1.84a3.65,3.65,0,0,0,7.3,0V45.47H73.27v1.84a3.65,3.65,0,0,0,7.3,0V45.47h2.3V76.89a1.118,1.118,0,0,1-1.12,1.12ZM55.09,35.81V47.3a1.65,1.65,0,1,1-3.3,0V33.98a1.65,1.65,0,1,1,3.3,0v1.83Zm23.46,8.66v2.84a1.65,1.65,0,1,1-3.3,0V33.99a1.65,1.65,0,0,1,3.3,0V44.48Zm7.24-2.48a1.477,1.477,0,0,1-1.48,1.48H80.55V33.98a3.65,3.65,0,0,0-7.3,0v9.49H57.09V33.98a3.65,3.65,0,0,0-7.3,0v9.49H45.7a1.477,1.477,0,0,1-1.48-1.48V22.8a5.6,5.6,0,0,1,5.6-5.6H80.19a5.6,5.6,0,0,1,5.6,5.6V41.97Z" fill="#20355e"/>
    <path id="Tracé_12508" data-name="Tracé 12508" d="M73.92,69.61H56.09a1,1,0,0,0,0,2H73.92a1,1,0,0,0,0-2Z" fill="#20355e"/>
    <g id="Groupe_1676" data-name="Groupe 1676" opacity="0.2">
      <circle id="Ellipse_24" data-name="Ellipse 24" cx="1" cy="1" r="1" transform="translate(68.51 34.82)" fill="#62c4dd"/>
      <circle id="Ellipse_25" data-name="Ellipse 25" cx="1" cy="1" r="1" transform="translate(64 34.82)" fill="#62c4dd"/>
      <circle id="Ellipse_26" data-name="Ellipse 26" cx="1" cy="1" r="1" transform="translate(59.49 34.82)" fill="#62c4dd"/>
    </g>
  </g>
</svg>
