<svg id="picto_ANNUAIRE" data-name="picto ANNUAIRE" xmlns="http://www.w3.org/2000/svg" width="130" height="130" viewBox="0 0 130 130">
  <rect id="Rectangle_1470" data-name="Rectangle 1470" width="130" height="130" fill="#fff"/>
  <g id="Groupe_727" data-name="Groupe 727">
    <path id="Tracé_12305" data-name="Tracé 12305" d="M73.68,118.44H56.33l-.95-3.3a20.01,20.01,0,0,0-9.43-11.79,20.077,20.077,0,0,0-15.03-2.33l-3.33.82L18.91,86.81l2.38-2.47a19.927,19.927,0,0,0,5.5-13.99,20.183,20.183,0,0,0-5.5-14.25l-2.38-2.47L27.59,38.6l3.34.83a1.009,1.009,0,0,1-.48,1.96l-1.87-.46L21.42,53.34l1.33,1.38a22.89,22.89,0,0,1,.01,31.04l-1.33,1.38,7.16,12.4,1.86-.46a21.913,21.913,0,0,1,16.37,2.45A22.149,22.149,0,0,1,57.33,114.6l.53,1.84H72.18l.53-1.85A22.9,22.9,0,0,1,99.59,99.07l1.87.46,7.16-12.4-1.33-1.38a22.9,22.9,0,0,1,0-31.04l1.33-1.38-7.16-12.41-1.86.46a1.009,1.009,0,0,1-.48-1.96l3.33-.83,8.68,15.03-2.38,2.47a19.927,19.927,0,0,0-5.5,13.99,20.165,20.165,0,0,0,5.5,14.25l2.38,2.47-8.68,15.03L99.11,101a20.868,20.868,0,0,0-24.46,14.11l-.95,3.3Z" fill="#e84b57"/>
    <path id="Tracé_12306" data-name="Tracé 12306" d="M65,98.23A28.1,28.1,0,0,1,36.94,70.17a1.01,1.01,0,1,1,2.02,0,26.05,26.05,0,1,0,52.1,0,1.01,1.01,0,0,1,2.02,0A28.088,28.088,0,0,1,65.02,98.23Z" fill="#5fc3e1"/>
    <g id="Groupe_726" data-name="Groupe 726">
      <g id="Groupe_724" data-name="Groupe 724">
        <path id="Tracé_12307" data-name="Tracé 12307" d="M78.11,17.47a1.007,1.007,0,0,1-1.01-1.01V12.89H73.53a1.01,1.01,0,1,1,0-2.02h5.58v5.58a1.007,1.007,0,0,1-1.01,1.01Z" fill="#20355e"/>
        <g id="Groupe_723" data-name="Groupe 723">
          <path id="Tracé_12308" data-name="Tracé 12308" d="M56.32,36.86H50.74V31.28a1.01,1.01,0,1,1,2.02,0v3.57h3.57a1.01,1.01,0,0,1,0,2.02Z" fill="#20355e"/>
          <path id="Tracé_12309" data-name="Tracé 12309" d="M79.12,36.86H73.54a1.01,1.01,0,1,1,0-2.02h3.57V31.27a1.01,1.01,0,0,1,2.02,0v5.58Z" fill="#20355e"/>
          <path id="Tracé_12310" data-name="Tracé 12310" d="M51.74,17.47a1.007,1.007,0,0,1-1.01-1.01V10.88h5.58a1.01,1.01,0,0,1,0,2.02H52.74v3.57a1.007,1.007,0,0,1-1.01,1.01Z" fill="#20355e"/>
        </g>
      </g>
      <path id="Tracé_12311" data-name="Tracé 12311" d="M74.2,58.18a1.01,1.01,0,1,1,0-2.02,4.2,4.2,0,0,0,4.19-4.19V42.56a4.851,4.851,0,0,0-1.01-2.95,1,1,0,0,1,1.58-1.24,6.837,6.837,0,0,1,1.44,4.19v9.41a6.205,6.205,0,0,1-6.2,6.2Z" fill="#20355e"/>
      <path id="Tracé_12312" data-name="Tracé 12312" d="M55.65,58.18a6.205,6.205,0,0,1-6.2-6.2V42.57a6.837,6.837,0,0,1,1.44-4.19,1,1,0,1,1,1.58,1.24,4.8,4.8,0,0,0-1.01,2.94v9.41a4.2,4.2,0,0,0,4.19,4.19,1.01,1.01,0,0,1,0,2.02Z" fill="#20355e"/>
      <path id="Tracé_12313" data-name="Tracé 12313" d="M69.45,83.31H68.03a1.01,1.01,0,0,1,0-2.02h1.42a3.525,3.525,0,0,0,3.52-3.52l-.02-33.81a1,1,0,0,1,1-1.01.947.947,0,0,1,1.01,1l.02,3.09V77.78A5.535,5.535,0,0,1,69.45,83.31Z" fill="#20355e"/>
      <path id="Tracé_12314" data-name="Tracé 12314" d="M60.4,83.31a5.535,5.535,0,0,1-5.53-5.53l.02-33.82a1,1,0,0,1,1.01-1h0a1,1,0,0,1,1,1.01l-.02,3.09V77.78a3.52,3.52,0,0,0,7.04,0V59.85a1.01,1.01,0,0,1,2.02,0V77.78a5.535,5.535,0,0,1-5.53,5.53Z" fill="#20355e"/>
      <path id="Tracé_12315" data-name="Tracé 12315" d="M64.93,33.97a10.1,10.1,0,1,1,10.1-10.1A10.11,10.11,0,0,1,64.93,33.97Zm0-18.19a8.09,8.09,0,1,0,8.09,8.09,8.1,8.1,0,0,0-8.09-8.09Z" fill="#20355e"/>
      <g id="Groupe_725" data-name="Groupe 725" opacity="0.2">
        <path id="Tracé_12316" data-name="Tracé 12316" d="M64.93,17.91a5.879,5.879,0,0,0-2.26.45,5.959,5.959,0,0,1,0,11.02,5.879,5.879,0,0,0,2.26.45,5.96,5.96,0,0,0,0-11.92Z" fill="#62c4dd"/>
      </g>
    </g>
  </g>
</svg>
