<svg id="picto_EMPLOI_-_STAGES" data-name="picto EMPLOI - STAGES" xmlns="http://www.w3.org/2000/svg" xmlns:xlink="http://www.w3.org/1999/xlink" width="130" height="130" viewBox="0 0 130 130">
  <defs>
    <clipPath id="clip-path">
      <rect id="Rectangle_1473" data-name="Rectangle 1473" width="31.37" height="3.81" transform="translate(48.75 72.37)" fill="rgba(0,0,0,0)"/>
    </clipPath>
  </defs>
  <rect id="Rectangle_1472" data-name="Rectangle 1472" width="130" height="130" fill="#fff"/>
  <g id="Groupe_522">
    <g id="Groupe_515">
      <g id="Groupe_514">
        <g id="Groupe_513">
          <path id="Tracé_4318" d="M73.11,118.73H55.76l-.95-3.3a20.071,20.071,0,0,0-9.42-11.79,20.106,20.106,0,0,0-15.04-2.33l-3.33.82L18.34,87.1l2.38-2.47a19.95,19.95,0,0,0,5.5-13.99,20.14,20.14,0,0,0-5.5-14.25l-2.38-2.47,8.68-15.03,3.34.83a1,1,0,0,1,.74,1.21v.01a1,1,0,0,1-1.19.74h-.03l-1.86-.46-7.16,12.4,1.33,1.39a22.891,22.891,0,0,1,0,31.03l-1.33,1.38,7.16,12.4,1.86-.46a21.886,21.886,0,0,1,16.36,2.44,22.142,22.142,0,0,1,10.51,13.08l.53,1.84H71.6l.53-1.84A22.882,22.882,0,0,1,99.01,99.37l1.87.46,7.16-12.4-1.33-1.38a22.9,22.9,0,0,1,0-31.04l1.33-1.39-7.16-12.4-1.86.46a.986.986,0,0,1-1.21-.7v-.03a1,1,0,0,1,.72-1.22h.01l3.33-.83,8.68,15.03-2.38,2.47a19.95,19.95,0,0,0-5.5,13.99,20.2,20.2,0,0,0,5.5,14.25l2.38,2.47-8.68,15.03-3.34-.83a20.866,20.866,0,0,0-24.45,14.12l-.96,3.3Z" fill="#e94b57"/>
          <path id="Tracé_4319" d="M64.43,98.53A28.1,28.1,0,0,1,36.37,70.47a1.01,1.01,0,1,1,2.02,0,26.045,26.045,0,0,0,52.09,0,1.01,1.01,0,0,1,2.02,0h0A28.1,28.1,0,0,1,64.43,98.53" fill="#62c4dd"/>
          <path id="Tracé_4320" d="M83.28,61.69H45.59a4.31,4.31,0,0,1-4.31-4.31V31.1a4.3,4.3,0,0,1,4.31-4.3h7.59a1.01,1.01,0,0,1,0,2.02H45.59a2.3,2.3,0,0,0-2.29,2.29V57.39a2.3,2.3,0,0,0,2.29,2.29H83.28a2.283,2.283,0,0,0,2.29-2.29h0V31.1a2.29,2.29,0,0,0-2.29-2.29H75.6a1.01,1.01,0,1,1,0-2.02h7.68a4.308,4.308,0,0,1,4.31,4.3V57.38a4.31,4.31,0,0,1-4.31,4.31" fill="#00294b"/>
          <path id="Tracé_4321" d="M77.74,66.79H51.12a1.024,1.024,0,0,1-.83-.44.987.987,0,0,1-.1-.94l2.01-5.09a1.012,1.012,0,0,1,1.88.75l-1.47,3.71H76.27L74.8,61.07a1.012,1.012,0,0,1,1.88-.75l2.02,5.09a1.007,1.007,0,0,1-.57,1.31.937.937,0,0,1-.37.07" fill="#00294b"/>
          <path id="Tracé_4322" d="M82.1,79.93H46.77a2.576,2.576,0,0,1-2.26-3.82l3.85-6.95a1.006,1.006,0,0,1,.88-.52H79.61a1.006,1.006,0,0,1,.88.52l3.86,6.95a2.568,2.568,0,0,1-2.25,3.82M49.84,70.65l-3.57,6.43a.566.566,0,0,0,0,.55.575.575,0,0,0,.49.28H82.09a.551.551,0,0,0,.56-.55.53.53,0,0,0-.07-.28l-3.57-6.43H49.83Z" fill="#00294b"/>
          <g id="Groupe_512" opacity="0.2">
            <g id="Groupe_511">
              <g id="Groupe_728" data-name="Groupe 728" clip-path="url(#clip-path)">
                <g id="Groupe_510">
                  <path id="Tracé_4323" d="M48.75,76.18l2.11-3.81H78l2.11,3.81H48.74Z" fill="#62c4dd"/>
                </g>
              </g>
            </g>
          </g>
          <path id="Tracé_4324" d="M64.46,55.99h-.05a1.044,1.044,0,0,1-.78-.34l-3.29-4.28a1.018,1.018,0,0,1-.2-.77l1.65-10.53a.976.976,0,0,1,1.08-.85.17.17,0,0,1,.07.01,1,1,0,0,1,.84,1.14h0L62.2,50.47l2.23,2.9,2.23-2.9-1.58-10.1a1,1,0,0,1,.83-1.15h.02a.98.98,0,0,1,1.14.8v.04l1.65,10.53a1.018,1.018,0,0,1-.2.77l-3.29,4.28a1.137,1.137,0,0,1-.77.34" fill="#00294b"/>
          <path id="Tracé_4325" d="M64.43,24.05a38.207,38.207,0,0,1-8.97-1.07l-.37-.09a1.015,1.015,0,0,1-.77-.98V15.83a4.02,4.02,0,0,1,4.02-4.02H70.51a4.02,4.02,0,0,1,4.02,4.02v6.08a1.026,1.026,0,0,1-.76.98,38.174,38.174,0,0,1-9.34,1.16m-8.09-2.93a36.177,36.177,0,0,0,16.17,0V15.84a2.006,2.006,0,0,0-2-2H58.34a2.006,2.006,0,0,0-2,2v5.28Zm17.18.8Z" fill="#00294b"/>
          <path id="Tracé_4326" d="M64.43,38.31a9.083,9.083,0,0,1-8.47-5.96,29.878,29.878,0,0,1-1.73-7.52,1,1,0,0,1,.94-1.07.965.965,0,0,1,1.07.84v.1a28.325,28.325,0,0,0,1.6,6.91,6.986,6.986,0,0,0,13.19,0,28.95,28.95,0,0,0,1.59-6.81,1.032,1.032,0,0,1,1.08-.92,1,1,0,0,1,.93,1.07v.01a30.876,30.876,0,0,1-1.73,7.4,9.063,9.063,0,0,1-8.47,5.95" fill="#00294b"/>
          <path id="Tracé_4327" d="M82.09,52.3H70.41a1.01,1.01,0,1,1,0-2.02H81.07l-.09-4.6a6.465,6.465,0,0,0-.78-3.11,5.7,5.7,0,0,0-1.4-1.69,90.294,90.294,0,0,0-8.87-5.43,1,1,0,1,1,.95-1.77,88.587,88.587,0,0,1,9.17,5.62,7.716,7.716,0,0,1,1.9,2.28,8.475,8.475,0,0,1,1.03,4.06l.11,5.62a1.007,1.007,0,0,1-1.01,1.02" fill="#00294b"/>
          <path id="Tracé_4328" d="M58.46,52.3H46.79a1.016,1.016,0,0,1-1.01-1.02h0l.1-5.62a8.524,8.524,0,0,1,1.04-4.07,7.592,7.592,0,0,1,1.9-2.28,88.673,88.673,0,0,1,9.17-5.63,1,1,0,0,1,1.36.4,1.012,1.012,0,0,1-.4,1.36,90.3,90.3,0,0,0-8.87,5.43,5.7,5.7,0,0,0-1.4,1.69,6.649,6.649,0,0,0-.78,3.12l-.08,4.59H58.47a1.01,1.01,0,1,1,0,2.02" fill="#00294b"/>
        </g>
      </g>
    </g>
  </g>
</svg>
